<svg xmlns="http://www.w3.org/2000/svg" xmlns:xlink="http://www.w3.org/1999/xlink" width="1080" zoomAndPan="magnify" viewBox="0 0 810 809.999993" height="1080" preserveAspectRatio="xMidYMid meet" version="1.0"><defs><g/><clipPath id="6d69de0d73"><path d="M 81 81 L 729 81 L 729 715 L 81 715 Z M 81 81 " clip-rule="nonzero"/></clipPath><clipPath id="3fe4de2185"><path d="M 729 132 L 729 678 C 729 689.78125 723.320312 700.835938 713.742188 707.699219 C 704.164062 714.558594 691.867188 716.378906 680.714844 712.585938 L 453.285156 635.28125 C 421.976562 624.636719 388.023438 624.636719 356.714844 635.28125 L 129.285156 712.585938 C 118.132812 716.378906 105.835938 714.558594 96.257812 707.699219 C 86.679688 700.835938 81 689.78125 81 678 L 81 132 C 81 118.472656 86.375 105.5 95.9375 95.9375 C 105.5 86.375 118.472656 81 132 81 L 678 81 C 691.527344 81 704.5 86.375 714.0625 95.9375 C 723.625 105.5 729 118.472656 729 132 Z M 729 132 " clip-rule="nonzero"/></clipPath><clipPath id="f4f279b73b"><path d="M 227.886719 128 L 581.886719 128 L 581.886719 490.246094 L 227.886719 490.246094 Z M 227.886719 128 " clip-rule="nonzero"/></clipPath></defs><g clip-path="url(#6d69de0d73)"><g clip-path="url(#3fe4de2185)"><path fill="#ffffff" d="M 81 81 L 729 81 L 729 729 L 81 729 Z M 81 81 " fill-opacity="1" fill-rule="nonzero"/><path stroke-linecap="butt" transform="matrix(0.75, 0, 0, 0.75, 80.999999, 81.000016)" fill="none" stroke-linejoin="miter" d="M 864.000044 67.999982 L 864.000044 796.000019 C 864.000044 811.708353 856.427127 826.447937 843.656293 835.598979 C 830.885459 844.744813 814.489625 847.171896 799.619833 842.114604 L 496.380234 739.041683 C 454.63544 724.848974 409.364605 724.848974 367.619811 739.041683 L 64.380212 842.114604 C 49.51042 847.171896 33.114586 844.744813 20.343752 835.598979 C 7.572918 826.447937 0.000000766667 811.708353 0.000000766667 796.000019 L 0.000000766667 67.999982 C 0.000000766667 49.963523 7.166668 32.666647 19.916668 19.916646 C 32.666669 7.166646 49.963545 -0.0000212333 68.000004 -0.0000212333 L 796.000041 -0.0000212333 C 814.0365 -0.0000212333 831.333376 7.166646 844.083377 19.916646 C 856.833377 32.666647 864.000044 49.963523 864.000044 67.999982 Z M 864.000044 67.999982 " stroke="#ffffff" stroke-width="8" stroke-opacity="1" stroke-miterlimit="4"/></g></g><path fill="#100f0d" d="M 485.460938 182.519531 L 413.046875 206.664062 L 416.863281 218.117188 L 489.277344 193.972656 L 485.460938 182.519531 " fill-opacity="1" fill-rule="nonzero"/><path fill="#100f0d" d="M 252.023438 369.332031 L 451.164062 369.332031 L 451.164062 357.257812 L 252.023438 357.257812 L 252.023438 369.332031 " fill-opacity="1" fill-rule="nonzero"/><path fill="#100f0d" d="M 252.023438 393.476562 L 451.164062 393.476562 L 451.164062 381.402344 L 252.023438 381.402344 L 252.023438 393.476562 " fill-opacity="1" fill-rule="nonzero"/><g clip-path="url(#f4f279b73b)"><path fill="#100f0d" d="M 483.160156 403.324219 C 472.359375 385.347656 472.8125 362.820312 484.53125 345.234375 L 485.601562 343.628906 L 559.265625 299.417969 C 554.582031 314.042969 556.644531 330.230469 565.464844 343.464844 L 569.417969 349.398438 Z M 568.941406 422.132812 L 483.078125 475.808594 C 472.246094 457.824219 472.6875 435.273438 484.421875 417.667969 L 485.621094 415.871094 C 486.253906 415.570312 486.871094 415.242188 487.46875 414.867188 L 555.46875 372.359375 C 552.851562 389.953125 557.582031 407.933594 568.941406 422.132812 Z M 470.59375 405.546875 L 245.988281 405.546875 C 242.660156 405.546875 239.953125 402.839844 239.953125 399.511719 L 239.953125 345.742188 C 239.953125 345.554688 239.972656 345.371094 239.988281 345.1875 L 470.59375 345.1875 C 460.882812 364.160156 460.882812 386.574219 470.59375 405.546875 Z M 470.484375 477.980469 L 276.160156 477.980469 C 272.835938 477.980469 270.125 475.273438 270.125 471.945312 L 270.125 417.621094 L 470.484375 417.621094 C 460.769531 436.59375 460.769531 459.007812 470.484375 477.980469 Z M 317.417969 292.636719 C 317.945312 292.855469 318.484375 293.058594 319.039062 293.234375 L 403.523438 319.640625 C 405.289062 320.191406 407.105469 320.46875 408.921875 320.46875 C 410.734375 320.46875 412.554688 320.191406 414.320312 319.640625 L 498.800781 293.234375 C 503.34375 291.8125 506.988281 288.753906 509.1875 284.824219 L 560.121094 284.824219 L 479.664062 333.113281 L 254.464844 333.113281 Z M 318.402344 220.792969 L 402.886719 247.019531 L 402.886719 306.792969 L 322.636719 281.710938 C 320.105469 280.917969 318.402344 278.601562 318.402344 275.949219 Z M 414.957031 247.019531 L 499.4375 220.792969 L 499.4375 275.949219 C 499.4375 278.601562 497.734375 280.917969 495.203125 281.710938 L 414.957031 306.792969 Z M 570.222656 363.132812 L 575.816406 359.636719 C 578.605469 357.890625 580.523438 355.15625 581.21875 351.941406 C 581.910156 348.722656 581.289062 345.441406 579.460938 342.703125 L 575.507812 336.769531 C 566.695312 323.546875 566.695312 306.464844 575.507812 293.238281 L 576.652344 291.519531 C 579.128906 287.808594 579.359375 283.0625 577.253906 279.128906 C 575.148438 275.195312 571.070312 272.753906 566.609375 272.753906 L 511.507812 272.753906 L 511.507812 217.046875 L 567.140625 199.777344 C 572.21875 198.199219 575.632812 193.566406 575.632812 188.246094 C 575.632812 182.925781 572.21875 178.292969 567.140625 176.714844 L 414.417969 129.308594 C 410.777344 128.175781 406.945312 128.21875 403.328125 129.421875 L 370.808594 140.265625 L 374.621094 151.71875 L 407.144531 140.875 C 408.347656 140.472656 409.628906 140.460938 410.84375 140.835938 L 563.5625 188.246094 L 410.710938 235.695312 C 409.539062 236.058594 408.300781 236.058594 407.132812 235.695312 L 254.59375 188.34375 L 296 175.917969 L 292.53125 164.355469 L 251.125 176.78125 C 246.007812 178.316406 242.550781 182.941406 242.527344 188.289062 C 242.5 193.632812 245.910156 198.289062 251.015625 199.875 L 252.023438 200.1875 L 252.023438 246.9375 L 234.78125 275.683594 L 245.128906 281.894531 L 252.023438 270.402344 L 252.023438 290.859375 L 264.09375 290.859375 L 264.09375 270.402344 L 270.988281 281.894531 L 281.335938 275.683594 L 264.09375 246.9375 L 264.09375 203.933594 L 306.332031 217.042969 L 306.332031 275.949219 C 306.332031 278.882812 307.03125 281.675781 308.289062 284.152344 L 236.199219 330.507812 C 230.992188 333.855469 227.886719 339.550781 227.886719 345.742188 L 227.886719 399.511719 C 227.886719 409.496094 236.003906 417.621094 245.988281 417.621094 L 258.058594 417.621094 L 258.058594 471.945312 C 258.058594 481.929688 266.179688 490.054688 276.160156 490.054688 L 477.871094 490.054688 C 481.269531 490.054688 484.589844 489.101562 487.46875 487.300781 L 575.335938 432.367188 C 578.253906 430.542969 580.257812 427.554688 580.835938 424.160156 C 581.417969 420.765625 580.511719 417.277344 578.363281 414.589844 C 567.183594 400.613281 563.890625 382.132812 569.546875 365.152344 L 570.222656 363.132812 " fill-opacity="1" fill-rule="nonzero"/></g><path fill="#100f0d" d="M 282.195312 441.765625 L 451.164062 441.765625 L 451.164062 429.691406 L 282.195312 429.691406 L 282.195312 441.765625 " fill-opacity="1" fill-rule="nonzero"/><path fill="#100f0d" d="M 282.195312 465.910156 L 451.164062 465.910156 L 451.164062 453.835938 L 282.195312 453.835938 L 282.195312 465.910156 " fill-opacity="1" fill-rule="nonzero"/><path fill="#100f0d" d="M 336.507812 154.96875 C 338.953125 158.550781 342.054688 161.652344 345.636719 164.101562 C 342.054688 166.550781 338.953125 169.652344 336.507812 173.230469 C 334.058594 169.652344 330.957031 166.550781 327.378906 164.101562 C 330.957031 161.652344 334.058594 158.550781 336.507812 154.96875 Z M 330.472656 192.773438 L 330.472656 194.28125 L 342.539062 194.28125 L 342.539062 192.773438 C 342.539062 180.292969 352.691406 170.136719 365.171875 170.136719 L 366.679688 170.136719 L 366.679688 158.066406 L 365.171875 158.066406 C 352.691406 158.066406 342.539062 147.910156 342.539062 135.429688 L 342.539062 133.921875 L 330.472656 133.921875 L 330.472656 135.429688 C 330.472656 147.910156 320.320312 158.066406 307.84375 158.066406 L 306.332031 158.066406 L 306.332031 170.136719 L 307.84375 170.136719 C 320.320312 170.136719 330.472656 180.292969 330.472656 192.773438 " fill-opacity="1" fill-rule="nonzero"/><g fill="#000000" fill-opacity="1"><g transform="translate(215.73909, 573.683535)"><g><path d="M 14.734375 -19.75 L 14.734375 -7.4375 L 36.203125 -7.4375 L 36.203125 0 L 5.84375 0 L 5.84375 -44.96875 L 35.71875 -44.96875 L 35.71875 -37.53125 L 14.734375 -37.53125 L 14.734375 -27.015625 L 33.0625 -27.015625 L 33.0625 -19.75 Z M 14.734375 -19.75 "/></g></g></g><g fill="#000000" fill-opacity="1"><g transform="translate(254.399382, 573.683535)"><g><path d="M 22.03125 -44.96875 C 29.332031 -44.96875 34.90625 -43.082031 38.75 -39.3125 C 42.59375 -35.539062 44.515625 -29.929688 44.515625 -22.484375 C 44.515625 -15.054688 42.59375 -9.453125 38.75 -5.671875 C 34.90625 -1.890625 29.332031 0 22.03125 0 L 5.84375 0 L 5.84375 -44.96875 Z M 21.5 -7.46875 C 26.132812 -7.46875 29.597656 -8.648438 31.890625 -11.015625 C 34.191406 -13.390625 35.34375 -17.210938 35.34375 -22.484375 C 35.34375 -27.753906 34.191406 -31.570312 31.890625 -33.9375 C 29.597656 -36.3125 26.132812 -37.5 21.5 -37.5 L 14.734375 -37.5 L 14.734375 -7.46875 Z M 21.5 -7.46875 "/></g></g></g><g fill="#000000" fill-opacity="1"><g transform="translate(302.471008, 573.683535)"><g><path d="M 23.84375 0.640625 C 17.644531 0.640625 13.046875 -0.828125 10.046875 -3.765625 C 7.054688 -6.710938 5.5625 -11.078125 5.5625 -16.859375 L 5.5625 -44.96875 L 14.28125 -44.96875 L 14.28125 -16.921875 C 14.28125 -13.640625 15.066406 -11.175781 16.640625 -9.53125 C 18.222656 -7.894531 20.625 -7.078125 23.84375 -7.078125 C 30.21875 -7.078125 33.40625 -10.359375 33.40625 -16.921875 L 33.40625 -44.96875 L 42.109375 -44.96875 L 42.109375 -16.859375 C 42.109375 -11.078125 40.609375 -6.710938 37.609375 -3.765625 C 34.617188 -0.828125 30.03125 0.640625 23.84375 0.640625 Z M 23.84375 0.640625 "/></g></g></g><g fill="#000000" fill-opacity="1"><g transform="translate(350.1428, 573.683535)"><g><path d="M 24.578125 0.640625 C 20.429688 0.640625 16.78125 -0.21875 13.625 -1.9375 C 10.46875 -3.65625 7.992188 -6.242188 6.203125 -9.703125 C 4.421875 -13.160156 3.53125 -17.421875 3.53125 -22.484375 C 3.53125 -27.546875 4.421875 -31.804688 6.203125 -35.265625 C 7.992188 -38.722656 10.46875 -41.3125 13.625 -43.03125 C 16.78125 -44.757812 20.429688 -45.625 24.578125 -45.625 C 28.898438 -45.625 32.570312 -44.773438 35.59375 -43.078125 C 38.625 -41.390625 40.785156 -38.8125 42.078125 -35.34375 L 35.59375 -31.375 L 34.828125 -31.40625 C 33.859375 -33.75 32.546875 -35.425781 30.890625 -36.4375 C 29.242188 -37.445312 27.140625 -37.953125 24.578125 -37.953125 C 20.847656 -37.953125 17.9375 -36.71875 15.84375 -34.25 C 13.75 -31.78125 12.703125 -27.859375 12.703125 -22.484375 C 12.703125 -17.128906 13.75 -13.21875 15.84375 -10.75 C 17.9375 -8.28125 20.847656 -7.046875 24.578125 -7.046875 C 30.421875 -7.046875 34 -9.882812 35.3125 -15.5625 L 36.078125 -15.5625 L 42.640625 -12.15625 C 41.410156 -7.882812 39.304688 -4.679688 36.328125 -2.546875 C 33.359375 -0.421875 29.441406 0.640625 24.578125 0.640625 Z M 24.578125 0.640625 "/></g></g></g><g fill="#000000" fill-opacity="1"><g transform="translate(394.246898, 573.683535)"><g><path d="M 43.15625 0 L 33.8125 0 L 30.421875 -10.359375 L 13.203125 -10.359375 L 9.8125 0 L 0.671875 0 L 16.21875 -44.96875 L 27.625 -44.96875 Z M 21.375 -35.59375 L 15.59375 -17.84375 L 27.96875 -17.84375 L 22.15625 -35.59375 Z M 21.375 -35.59375 "/></g></g></g><g fill="#000000" fill-opacity="1"><g transform="translate(438.074208, 573.683535)"><g><path d="M 36.046875 -44.96875 L 36.046875 -37.5 L 23.078125 -37.5 L 23.078125 0 L 14.21875 0 L 14.21875 -37.5 L 1.234375 -37.5 L 1.234375 -44.96875 Z M 36.046875 -44.96875 "/></g></g></g><g fill="#000000" fill-opacity="1"><g transform="translate(475.350474, 573.683535)"><g><path d="M 14.734375 0 L 5.84375 0 L 5.84375 -44.96875 L 14.734375 -44.96875 Z M 14.734375 0 "/></g></g></g><g fill="#000000" fill-opacity="1"><g transform="translate(495.957002, 573.683535)"><g><path d="M 24.515625 0.640625 C 20.390625 0.640625 16.753906 -0.195312 13.609375 -1.875 C 10.460938 -3.5625 7.992188 -6.128906 6.203125 -9.578125 C 4.421875 -13.035156 3.53125 -17.335938 3.53125 -22.484375 C 3.53125 -27.628906 4.421875 -31.929688 6.203125 -35.390625 C 7.992188 -38.847656 10.460938 -41.414062 13.609375 -43.09375 C 16.753906 -44.78125 20.390625 -45.625 24.515625 -45.625 C 28.640625 -45.625 32.269531 -44.785156 35.40625 -43.109375 C 38.539062 -41.441406 40.992188 -38.875 42.765625 -35.40625 C 44.546875 -31.9375 45.4375 -27.628906 45.4375 -22.484375 C 45.4375 -17.335938 44.546875 -13.03125 42.765625 -9.5625 C 40.992188 -6.101562 38.539062 -3.535156 35.40625 -1.859375 C 32.269531 -0.191406 28.640625 0.640625 24.515625 0.640625 Z M 24.515625 -7.078125 C 28.328125 -7.078125 31.238281 -8.300781 33.25 -10.75 C 35.257812 -13.195312 36.265625 -17.109375 36.265625 -22.484375 C 36.265625 -27.859375 35.257812 -31.773438 33.25 -34.234375 C 31.238281 -36.691406 28.328125 -37.921875 24.515625 -37.921875 C 20.679688 -37.921875 17.753906 -36.691406 15.734375 -34.234375 C 13.710938 -31.773438 12.703125 -27.859375 12.703125 -22.484375 C 12.703125 -17.109375 13.710938 -13.195312 15.734375 -10.75 C 17.753906 -8.300781 20.679688 -7.078125 24.515625 -7.078125 Z M 24.515625 -7.078125 "/></g></g></g><g fill="#000000" fill-opacity="1"><g transform="translate(544.951309, 573.683535)"><g><path d="M 14.453125 0 L 5.84375 0 L 5.84375 -44.96875 L 16.03125 -44.96875 L 34.078125 -16 L 34.890625 -16.125 L 34.890625 -44.96875 L 43.4375 -44.96875 L 43.4375 0 L 34.328125 0 L 15.234375 -30.953125 L 14.453125 -30.828125 Z M 14.453125 0 "/></g></g></g></svg>